<?xml version="1.0" encoding="UTF-8" standalone="no"?>
<svg
   width="58.758549mm"
   height="27.728809mm"
   viewBox="0 0 58.758549 27.728809"
   version="1.1"
   id="svg8"
   inkscape:version="1.3.2 (091e20e, 2023-11-25, custom)"
   sodipodi:docname="engrenage-1.svg"
   xmlns:inkscape="http://www.inkscape.org/namespaces/inkscape"
   xmlns:sodipodi="http://sodipodi.sourceforge.net/DTD/sodipodi-0.dtd"
   xmlns="http://www.w3.org/2000/svg"
   xmlns:svg="http://www.w3.org/2000/svg"
   xmlns:rdf="http://www.w3.org/1999/02/22-rdf-syntax-ns#"
   xmlns:cc="http://creativecommons.org/ns#"
   xmlns:dc="http://purl.org/dc/elements/1.1/">
  <sodipodi:namedview
     id="base"
     pagecolor="#ffffff"
     bordercolor="#666666"
     borderopacity="1.0"
     inkscape:pageopacity="0.0"
     inkscape:pageshadow="2"
     inkscape:zoom="2.0000001"
     inkscape:cx="32.999998"
     inkscape:cy="49.499997"
     inkscape:document-units="mm"
     inkscape:current-layer="layer3"
     showgrid="true"
     inkscape:window-width="1920"
     inkscape:window-height="1057"
     inkscape:window-x="-8"
     inkscape:window-y="-8"
     inkscape:window-maximized="1"
     inkscape:snap-grids="true"
     inkscape:pagecheckerboard="false"
     borderlayer="true"
     inkscape:snap-path-clip="true"
     inkscape:document-rotation="0"
     inkscape:showpageshadow="2"
     inkscape:deskcolor="#d1d1d1">
    <inkscape:grid
       type="xygrid"
       id="grid25"
       units="mm"
       spacingx="0.5"
       spacingy="0.50000001"
       empspacing="10"
       snapvisiblegridlinesonly="false"
       originx="-289.04857"
       originy="-148.41185"
       visible="true" />
  </sodipodi:namedview>
  <defs
     id="defs2" />
  <metadata
     id="metadata5">
    <rdf:RDF>
      <cc:Work
         rdf:about="">
        <dc:format>image/svg+xml</dc:format>
        <dc:type
           rdf:resource="http://purl.org/dc/dcmitype/StillImage" />
        <cc:license
           rdf:resource="http://creativecommons.org/licenses/by-nc-sa/4.0/" />
      </cc:Work>
      <cc:License
         rdf:about="http://creativecommons.org/licenses/by-nc-sa/4.0/">
        <cc:permits
           rdf:resource="http://creativecommons.org/ns#Reproduction" />
        <cc:permits
           rdf:resource="http://creativecommons.org/ns#Distribution" />
        <cc:requires
           rdf:resource="http://creativecommons.org/ns#Notice" />
        <cc:requires
           rdf:resource="http://creativecommons.org/ns#Attribution" />
        <cc:prohibits
           rdf:resource="http://creativecommons.org/ns#CommercialUse" />
        <cc:permits
           rdf:resource="http://creativecommons.org/ns#DerivativeWorks" />
        <cc:requires
           rdf:resource="http://creativecommons.org/ns#ShareAlike" />
      </cc:License>
    </rdf:RDF>
  </metadata>
  <g
     inkscape:groupmode="layer"
     id="layer2"
     inkscape:label="Images-Gravures"
     transform="translate(-289.04858,-148.41185)" />
  <g
     inkscape:label="Marquage"
     inkscape:groupmode="layer"
     id="layer1"
     transform="translate(-289.04858,-148.41185)" />
  <g
     inkscape:groupmode="layer"
     id="layer3"
     inkscape:label="Découpes"
     transform="translate(-289.04858,-148.41185)">
    <path
       style="fill:none;stroke:#660066;stroke-width:0.0999996"
       d=""
       id="path11" />
    <path
       style="fill:none;stroke:#006633;stroke-width:0.0999996"
       d=""
       id="path12" />
    <path
       style="fill:none;stroke:#660066;stroke-width:0.1"
       d=""
       id="path15" />
    <path
       style="fill:none;stroke:#006633;stroke-width:0.1"
       d=""
       id="path16" />
    <g
       id="g21">
      <path
         style="fill:none;stroke:#663300;stroke-width:0.1"
         d="M 345.94147,161.71275 347.75467,162.27625 347.63767,164.07115 345.76667,164.39455 345.40987,165.85465 346.92107,167.00435 346.19717,168.65095 344.32837,168.31485 343.49377,169.56495 344.52057,171.16215 343.27717,172.46185 341.63597,171.50685 340.42417,172.39605 340.84277,174.24815 339.22977,175.04425 338.01427,173.58555 336.57137,174.00665 336.33127,175.89015 334.54327,176.08665 333.89997,174.30015 332.40007,174.20235 331.53027,175.89015 329.78297,175.46325 329.78937,173.56445 328.41347,172.95965 327.01877,174.24815 325.52287,173.24935 326.17837,171.46735 325.09227,170.42825 323.34097,171.16215 322.27687,169.71195 323.50237,168.26155 322.83707,166.91375 320.94047,167.00435 320.43657,165.27765 322.08417,164.33385 321.92007,162.83975 320.10687,162.27625 320.22387,160.48135 322.09487,160.15795 322.45167,158.69785 320.94047,157.54815 321.66437,155.90155 323.53317,156.23765 324.36777,154.98755 323.34097,153.39035 324.58437,152.09065 326.22557,153.04565 327.43737,152.15645 327.01877,150.30435 328.63177,149.50825 329.84727,150.96695 331.29017,150.54585 331.53027,148.66235 333.31827,148.46585 333.96157,150.25235 335.46147,150.35015 336.33127,148.66235 338.07857,149.08925 338.07217,150.98805 339.44807,151.59285 340.84277,150.30435 342.33867,151.30315 341.68317,153.08515 342.76927,154.12425 344.52057,153.39035 345.58467,154.84055 344.35917,156.29095 345.02447,157.63875 346.92107,157.54815 347.42497,159.27485 345.77737,160.21865 Z"
         id="path13" />
      <text
         xml:space="preserve"
         style="font-size:2.82222px;line-height:1.25;font-family:sans-serif;-inkscape-font-specification:sans-serif;text-align:center;letter-spacing:0px;word-spacing:0px;text-anchor:middle;fill:#090aca;fill-opacity:1;stroke-width:0.264583"
         x="333.85739"
         y="159.59796"
         id="text16"><tspan
           sodipodi:role="line"
           style="font-size:2.82222px;text-align:center;text-anchor:middle;fill:#090aca;fill-opacity:1;stroke-width:0.264583"
           x="333.85739"
           y="159.59796"
           id="tspan20">Poulie au pas</tspan><tspan
           sodipodi:role="line"
           style="font-size:2.82222px;text-align:center;text-anchor:middle;fill:#090aca;fill-opacity:1;stroke-width:0.264583"
           x="333.85739"
           y="163.12573"
           id="tspan17"> métrique</tspan><tspan
           sodipodi:role="line"
           style="font-size:2.82222px;text-align:center;text-anchor:middle;fill:#090aca;fill-opacity:1;stroke-width:0.264583"
           x="333.85739"
           y="166.65352"
           id="tspan21">(T)</tspan></text>
    </g>
    <g
       id="g22"
       transform="translate(0,2.4735071)">
      <path
         style="fill:none;stroke:#663300;stroke-width:0.0999996"
         d="M 314.55752,158.73061 314.75282,158.73448 314.95005,158.75854 315.1484,158.79635 315.3475,158.84578 315.54708,158.90558 315.74694,158.97506 315.94688,159.05359 316.14667,159.14091 316.34619,159.23652 316.54522,159.34035 316.74356,159.45214 316.74957,159.68767 316.75158,159.92327 316.74957,160.15887 316.74356,160.3944 316.54522,160.50619 316.34619,160.61002 316.14667,160.70563 315.94688,160.79295 315.74694,160.87148 315.54708,160.94096 315.3475,161.00076 315.1484,161.05019 314.95005,161.088 314.75282,161.11206 314.55752,161.11593 313.58476,161.01617 313.53823,161.40103 313.47781,161.78395 313.40363,162.16452 313.31569,162.54205 314.26391,162.78104 314.44608,162.85148 314.6232,162.94149 314.79665,163.04491 314.96685,163.15939 315.13395,163.2839 315.298,163.41753 315.45901,163.55973 315.61691,163.7101 315.77169,163.8682 315.92316,164.03384 316.07131,164.20667 315.99644,164.43003 315.91777,164.65215 315.8353,164.87289 315.74902,165.09218 315.52441,165.1293 315.30194,165.15882 315.08175,165.18046 314.86412,165.19415 314.6494,165.19961 314.43785,165.1965 314.22983,165.18447 314.02582,165.16276 313.82644,165.13048 313.63294,165.08561 313.44808,165.02242 312.56809,164.59602 312.39277,164.94182 312.20501,165.28098 312.00515,165.61315 311.79333,165.93786 312.60266,166.48677 312.74977,166.61522 312.88541,166.76046 313.01303,166.91691 313.13381,167.08275 313.24829,167.25683 313.35676,167.43851 313.45935,167.62724 313.55634,167.82253 313.64767,168.02405 313.73339,168.23145 313.81352,168.44458 313.66668,168.62888 313.5168,168.8107 313.36381,168.98989 313.20778,169.16645 312.984,169.12456 312.76485,169.07617 312.55053,169.02121 312.34134,168.95961 312.13768,168.89131 311.93996,168.81602 311.7486,168.73355 311.56429,168.64347 311.38807,168.54489 311.22153,168.43656 311.06944,168.31399 310.38835,167.6123 310.10532,167.87722 309.81289,168.13176 309.51147,168.37552 309.20141,168.60821 309.77417,169.40081 309.86847,169.57184 309.94624,169.75469 310.01268,169.94536 310.06944,170.14252 310.11742,170.34529 310.15724,170.5531 310.18918,170.76554 310.21344,170.9822 310.23038,171.2028 310.23999,171.42706 310.24234,171.65471 310.04137,171.77769 309.83833,171.89722 309.63328,172.0133 309.4263,172.12584 309.23031,172.00998 309.04089,171.88948 308.85831,171.76456 308.68285,171.63521 308.51486,171.50131 308.35475,171.36297 308.20314,171.22001 308.06079,171.07227 307.92889,170.91942 307.80943,170.76063 307.70843,170.5934 307.30843,169.70112 306.95184,169.85328 306.59,169.99244 306.22339,170.11847 305.85243,170.23108 306.11955,171.17176 306.1497,171.3647 306.1602,171.56318 306.15744,171.76504 306.14334,171.96974 306.11914,172.17665 306.0854,172.38557 306.04275,172.59608 305.99152,172.80803 305.93193,173.0211 305.86425,173.23506 305.78862,173.44985 305.55771,173.49665 305.32605,173.53958 305.09363,173.57851 304.86065,173.61349 304.7161,173.43755 304.57935,173.2596 304.45049,173.07972 304.32985,172.89811 304.21772,172.71484 304.11464,172.53012 304.02104,172.34395 303.9378,172.1564 303.86618,171.96767 303.80825,171.77763 303.7705,171.58592 303.69978,170.61061 303.31271,170.6317 302.92508,170.63868 302.53745,170.6317 302.15038,170.61061 302.07966,171.58592 302.04191,171.77763 301.98398,171.96767 301.91236,172.1564 301.82912,172.34395 301.73552,172.53012 301.63244,172.71484 301.52031,172.89811 301.39967,173.07972 301.27081,173.2596 301.13406,173.43755 300.98951,173.61349 300.75653,173.57851 300.52411,173.53958 300.29245,173.49665 300.06154,173.44985 299.98591,173.23506 299.91823,173.0211 299.85864,172.80803 299.80741,172.59608 299.76476,172.38557 299.73102,172.17665 299.70682,171.96974 299.69272,171.76504 299.68996,171.56318 299.70046,171.3647 299.73061,171.17176 299.99773,170.23108 299.62677,170.11847 299.26016,169.99244 298.89832,169.85328 298.54173,169.70112 298.14173,170.5934 298.04073,170.76063 297.92127,170.91942 297.78937,171.07227 297.64702,171.22001 297.49541,171.36297 297.3353,171.50131 297.16731,171.63521 296.99185,171.76456 296.80927,171.88948 296.61985,172.00998 296.42386,172.12584 296.21688,172.0133 296.01183,171.89722 295.80879,171.77769 295.60782,171.65471 295.61017,171.42706 295.61978,171.2028 295.63672,170.9822 295.66098,170.76554 295.69292,170.5531 295.73274,170.34529 295.78072,170.14252 295.83748,169.94536 295.90392,169.75469 295.98169,169.57184 296.07599,169.40081 296.64875,168.60821 296.33869,168.37552 296.03727,168.13176 295.74484,167.87722 295.46181,167.6123 294.78072,168.31399 294.62863,168.43656 294.46209,168.54489 294.28587,168.64347 294.10156,168.73355 293.9102,168.81602 293.71248,168.89131 293.50882,168.95961 293.29963,169.02121 293.08531,169.07617 292.86616,169.12456 292.64238,169.16645 292.48635,168.98989 292.33336,168.8107 292.18348,168.62888 292.03664,168.44458 292.11677,168.23145 292.20249,168.02405 292.29382,167.82253 292.39081,167.62724 292.4934,167.43851 292.60187,167.25683 292.71635,167.08275 292.83713,166.91691 292.96475,166.76046 293.10039,166.61522 293.2475,166.48677 294.05683,165.93786 293.84501,165.61315 293.64515,165.28098 293.45739,164.94182 293.28207,164.59602 292.40208,165.02242 292.21722,165.08561 292.02372,165.13048 291.82434,165.16276 291.62033,165.18447 291.41231,165.1965 291.20076,165.19961 290.98604,165.19415 290.76841,165.18046 290.54822,165.15882 290.32575,165.1293 290.10114,165.09218 290.01486,164.87289 289.93239,164.65215 289.85372,164.43003 289.77885,164.20667 289.927,164.03384 290.07847,163.8682 290.23325,163.7101 290.39115,163.55973 290.55216,163.41753 290.71621,163.2839 290.88331,163.15939 291.05351,163.04491 291.22696,162.94149 291.40408,162.85148 291.58625,162.78104 292.53447,162.54205 292.44653,162.16452 292.37235,161.78395 292.31193,161.40103 292.2654,161.01617 291.29264,161.11593 291.09734,161.11206 290.90011,161.088 290.70176,161.05019 290.50266,161.00076 290.30308,160.94096 290.10322,160.87148 289.90328,160.79295 289.70349,160.70563 289.50397,160.61002 289.30494,160.50619 289.1066,160.3944 289.10059,160.15887 289.09858,159.92327 289.10059,159.68767 289.1066,159.45214 289.30494,159.34035 289.50397,159.23652 289.70349,159.14091 289.90328,159.05359 290.10322,158.97506 290.30308,158.90558 290.50266,158.84578 290.70176,158.79635 290.90011,158.75854 291.09734,158.73448 291.29264,158.73061 292.2654,158.83037 292.31193,158.44551 292.37235,158.06259 292.44653,157.68202 292.53447,157.30449 291.58625,157.0655 291.40408,156.99506 291.22696,156.90505 291.05351,156.80163 290.88331,156.68715 290.71621,156.56264 290.55216,156.42901 290.39115,156.28681 290.23325,156.13644 290.07847,155.97834 289.927,155.8127 289.77885,155.63987 289.85372,155.41651 289.93239,155.19439 290.01486,154.97365 290.10114,154.75436 290.32575,154.71724 290.54822,154.68772 290.76841,154.66608 290.98604,154.65239 291.20076,154.64693 291.41231,154.65004 291.62033,154.66207 291.82434,154.68378 292.02372,154.71606 292.21722,154.76093 292.40208,154.82412 293.28207,155.25052 293.45739,154.90472 293.64515,154.56556 293.84501,154.23339 294.05683,153.90868 293.2475,153.35977 293.10039,153.23132 292.96475,153.08608 292.83713,152.92963 292.71635,152.76379 292.60187,152.58971 292.4934,152.40803 292.39081,152.2193 292.29382,152.02401 292.20249,151.82249 292.11677,151.61509 292.03664,151.40196 292.18348,151.21766 292.33336,151.03584 292.48635,150.85665 292.64238,150.68009 292.86616,150.72198 293.08531,150.77037 293.29963,150.82533 293.50882,150.88693 293.71248,150.95523 293.9102,151.03052 294.10156,151.11299 294.28587,151.20307 294.46209,151.30165 294.62863,151.40998 294.78072,151.53255 295.46181,152.23424 295.74484,151.96932 296.03727,151.71478 296.33869,151.47102 296.64875,151.23833 296.07599,150.44573 295.98169,150.2747 295.90392,150.09185 295.83748,149.90118 295.78072,149.70402 295.73274,149.50125 295.69292,149.29344 295.66098,149.081 295.63672,148.86434 295.61978,148.64374 295.61017,148.41948 295.60782,148.19183 295.80879,148.06885 296.01183,147.94932 296.21688,147.83324 296.42386,147.7207 296.61985,147.83656 296.80927,147.95706 296.99185,148.08198 297.16731,148.21133 297.3353,148.34523 297.49541,148.48357 297.64702,148.62653 297.78937,148.77427 297.92127,148.92712 298.04073,149.08591 298.14173,149.25314 298.54173,150.14542 298.89832,149.99326 299.26016,149.8541 299.62677,149.72807 299.99773,149.61546 299.73061,148.67478 299.70046,148.48184 299.68996,148.28336 299.69272,148.0815 299.70682,147.8768 299.73102,147.66989 299.76476,147.46097 299.80741,147.25046 299.85864,147.03851 299.91823,146.82544 299.98591,146.61148 300.06154,146.39669 300.29245,146.34989 300.52411,146.30696 300.75653,146.26803 300.98951,146.23305 301.13406,146.40899 301.27081,146.58694 301.39967,146.76682 301.52031,146.94843 301.63244,147.1317 301.73552,147.31642 301.82912,147.50259 301.91236,147.69014 301.98398,147.87887 302.04191,148.06891 302.07966,148.26062 302.15038,149.23593 302.53745,149.21484 302.92508,149.20786 303.31271,149.21484 303.69978,149.23593 303.7705,148.26062 303.80825,148.06891 303.86618,147.87887 303.9378,147.69014 304.02104,147.50259 304.11464,147.31642 304.21772,147.1317 304.32985,146.94843 304.45049,146.76682 304.57935,146.58694 304.7161,146.40899 304.86065,146.23305 305.09363,146.26803 305.32605,146.30696 305.55771,146.34989 305.78862,146.39669 305.86425,146.61148 305.93193,146.82544 305.99152,147.03851 306.04275,147.25046 306.0854,147.46097 306.11914,147.66989 306.14334,147.8768 306.15744,148.0815 306.1602,148.28336 306.1497,148.48184 306.11955,148.67478 305.85243,149.61546 306.22339,149.72807 306.59,149.8541 306.95184,149.99326 307.30843,150.14542 307.70843,149.25314 307.80943,149.08591 307.92889,148.92712 308.06079,148.77427 308.20314,148.62653 308.35475,148.48357 308.51486,148.34523 308.68285,148.21133 308.85831,148.08198 309.04089,147.95706 309.23031,147.83656 309.4263,147.7207 309.63328,147.83324 309.83833,147.94932 310.04137,148.06885 310.24234,148.19183 310.23999,148.41948 310.23038,148.64374 310.21344,148.86434 310.18918,149.081 310.15724,149.29344 310.11742,149.50125 310.06944,149.70402 310.01268,149.90118 309.94624,150.09185 309.86847,150.2747 309.77417,150.44573 309.20141,151.23833 309.51147,151.47102 309.81289,151.71478 310.10532,151.96932 310.38835,152.23424 311.06944,151.53255 311.22153,151.40998 311.38807,151.30165 311.56429,151.20307 311.7486,151.11299 311.93996,151.03052 312.13768,150.95523 312.34134,150.88693 312.55053,150.82533 312.76485,150.77037 312.984,150.72198 313.20778,150.68009 313.36381,150.85665 313.5168,151.03584 313.66668,151.21766 313.81352,151.40196 313.73339,151.61509 313.64767,151.82249 313.55634,152.02401 313.45935,152.2193 313.35676,152.40803 313.24829,152.58971 313.13381,152.76379 313.01303,152.92963 312.88541,153.08608 312.74977,153.23132 312.60266,153.35977 311.79333,153.90868 312.00515,154.23339 312.20501,154.56556 312.39277,154.90472 312.56809,155.25052 313.44808,154.82412 313.63294,154.76093 313.82644,154.71606 314.02582,154.68378 314.22983,154.66207 314.43785,154.65004 314.6494,154.64693 314.86412,154.65239 315.08175,154.66608 315.30194,154.68772 315.52441,154.71724 315.74902,154.75436 315.8353,154.97365 315.91777,155.19439 315.99644,155.41651 316.07131,155.63987 315.92316,155.8127 315.77169,155.97834 315.61691,156.13644 315.45901,156.28681 315.298,156.42901 315.13395,156.56264 314.96685,156.68715 314.79665,156.80163 314.6232,156.90505 314.44608,156.99506 314.26391,157.0655 313.31569,157.30449 313.40363,157.68202 313.47781,158.06259 313.53823,158.44551 313.58476,158.83037 Z"
         id="path9" />
      <text
         xml:space="preserve"
         style="font-size:2.82222px;line-height:1.25;font-family:sans-serif;-inkscape-font-specification:sans-serif;text-align:center;letter-spacing:0px;word-spacing:0px;text-anchor:middle;fill:#090aca;fill-opacity:1;stroke-width:0.264583"
         x="302.91943"
         y="157.38892"
         id="text16-5"><tspan
           sodipodi:role="line"
           style="font-size:2.82222px;text-align:center;text-anchor:middle;fill:#090aca;fill-opacity:1;stroke-width:0.264583"
           x="302.91943"
           y="157.38892"
           id="tspan17-7">Denture en </tspan><tspan
           sodipodi:role="line"
           style="font-size:2.82222px;text-align:center;text-anchor:middle;fill:#090aca;fill-opacity:1;stroke-width:0.264583"
           x="302.91943"
           y="160.91669"
           id="tspan19">développante</tspan><tspan
           sodipodi:role="line"
           style="font-size:2.82222px;text-align:center;text-anchor:middle;fill:#090aca;fill-opacity:1;stroke-width:0.264583"
           x="302.91943"
           y="164.44447"
           id="tspan18"> de cercle</tspan></text>
    </g>
  </g>
</svg>
