<?xml version="1.0" encoding="UTF-8" standalone="no"?>
<svg
   width="41.459179mm"
   height="28.436056mm"
   viewBox="0 0 41.459179 28.436056"
   version="1.1"
   id="svg8"
   inkscape:version="1.4 (86a8ad7, 2024-10-11)"
   sodipodi:docname="Engrenage.svg"
   xmlns:inkscape="http://www.inkscape.org/namespaces/inkscape"
   xmlns:sodipodi="http://sodipodi.sourceforge.net/DTD/sodipodi-0.dtd"
   xmlns="http://www.w3.org/2000/svg"
   xmlns:svg="http://www.w3.org/2000/svg"
   xmlns:rdf="http://www.w3.org/1999/02/22-rdf-syntax-ns#"
   xmlns:cc="http://creativecommons.org/ns#"
   xmlns:dc="http://purl.org/dc/elements/1.1/">
  <sodipodi:namedview
     id="base"
     pagecolor="#ffffff"
     bordercolor="#666666"
     borderopacity="1.0"
     inkscape:pageopacity="0.0"
     inkscape:pageshadow="2"
     inkscape:zoom="2.8284273"
     inkscape:cx="228.39548"
     inkscape:cy="46.845822"
     inkscape:document-units="mm"
     inkscape:current-layer="layer3"
     showgrid="true"
     inkscape:window-width="1904"
     inkscape:window-height="1040"
     inkscape:window-x="0"
     inkscape:window-y="1"
     inkscape:window-maximized="0"
     inkscape:snap-grids="true"
     inkscape:pagecheckerboard="false"
     borderlayer="true"
     inkscape:snap-path-clip="true"
     inkscape:document-rotation="0"
     inkscape:showpageshadow="2"
     inkscape:deskcolor="#d1d1d1">
    <inkscape:grid
       type="xygrid"
       id="grid25"
       units="mm"
       spacingx="0.5"
       spacingy="0.50000001"
       empspacing="10"
       snapvisiblegridlinesonly="false"
       originx="-291.42594"
       originy="-142.425"
       visible="true" />
  </sodipodi:namedview>
  <defs
     id="defs2" />
  <metadata
     id="metadata5">
    <rdf:RDF>
      <cc:Work
         rdf:about="">
        <dc:format>image/svg+xml</dc:format>
        <dc:type
           rdf:resource="http://purl.org/dc/dcmitype/StillImage" />
        <cc:license
           rdf:resource="http://creativecommons.org/licenses/by-nc-sa/4.0/" />
      </cc:Work>
      <cc:License
         rdf:about="http://creativecommons.org/licenses/by-nc-sa/4.0/">
        <cc:permits
           rdf:resource="http://creativecommons.org/ns#Reproduction" />
        <cc:permits
           rdf:resource="http://creativecommons.org/ns#Distribution" />
        <cc:requires
           rdf:resource="http://creativecommons.org/ns#Notice" />
        <cc:requires
           rdf:resource="http://creativecommons.org/ns#Attribution" />
        <cc:prohibits
           rdf:resource="http://creativecommons.org/ns#CommercialUse" />
        <cc:permits
           rdf:resource="http://creativecommons.org/ns#DerivativeWorks" />
        <cc:requires
           rdf:resource="http://creativecommons.org/ns#ShareAlike" />
      </cc:License>
    </rdf:RDF>
  </metadata>
  <g
     inkscape:groupmode="layer"
     id="layer2"
     inkscape:label="Images-Gravures"
     transform="translate(-291.42593,-142.425)" />
  <g
     inkscape:label="Marquage"
     inkscape:groupmode="layer"
     id="layer1"
     transform="translate(-291.42593,-142.425)" />
  <g
     inkscape:groupmode="layer"
     id="layer3"
     inkscape:label="Découpes"
     transform="translate(-291.42593,-142.425)">
    <rect
       style="fill:#ffffff;fill-opacity:1;stroke:none;stroke-width:1.1;stroke-dasharray:none"
       id="rect1"
       width="41.459179"
       height="28.436056"
       x="291.42593"
       y="142.425" />
    <path
       style="fill:none;stroke:#660066;stroke-width:0.0999996"
       d=""
       id="path11" />
    <path
       style="fill:none;stroke:#006633;stroke-width:0.0999996"
       d=""
       id="path12" />
    <path
       style="fill:none;stroke:#660066;stroke-width:0.1"
       d=""
       id="path15" />
    <path
       style="fill:none;stroke:#006633;stroke-width:0.1"
       d=""
       id="path16" />
    <path
       style="fill:none;stroke:#663300;stroke-width:0.7;stroke-dasharray:none"
       d="M 321.43192,153.24298 321.57862,153.24658 321.72662,153.26478 321.87532,153.29298 322.02452,153.32958 322.17412,153.37358 322.32382,153.42458 322.47352,153.48208 322.62322,153.54578 322.77272,153.61558 322.92182,153.69118 323.07052,153.77238 323.07462,153.94608 323.07602,154.11978 323.07462,154.29348 323.07052,154.46718 322.92182,154.54838 322.77272,154.62398 322.62322,154.69378 322.47352,154.75748 322.32382,154.81498 322.17412,154.86598 322.02452,154.90998 321.87532,154.94658 321.72662,154.97478 321.57862,154.99298 321.43192,154.99658 320.78782,154.93618 320.75742,155.21298 320.71832,155.48858 320.67042,155.76278 320.61372,156.03538 321.24502,156.17698 321.38342,156.22578 321.51852,156.28878 321.65122,156.36158 321.78182,156.44248 321.91042,156.53058 322.03702,156.62538 322.16172,156.72628 322.28432,156.83318 322.40492,156.94568 322.52342,157.06368 322.63982,157.18688 322.59002,157.35338 322.53762,157.51898 322.48262,157.68378 322.42512,157.84768 322.25852,157.87898 322.09332,157.90478 321.92962,157.92488 321.76762,157.93928 321.60742,157.94768 321.44922,157.94988 321.29342,157.94558 321.14022,157.93428 320.99012,157.91508 320.84372,157.88678 320.70312,157.84478 320.10912,157.58838 319.99472,157.84218 319.87232,158.09218 319.74202,158.33818 319.60392,158.57998 320.16052,158.90968 320.27712,158.99878 320.38602,159.10058 320.48982,159.21078 320.58902,159.32808 320.68412,159.45158 320.77532,159.58088 320.86262,159.71538 320.94622,159.85488 321.02612,159.99918 321.10242,160.14798 321.17492,160.30118 321.07622,160.44408 320.97522,160.58538 320.87202,160.72518 320.76662,160.86328 320.59852,160.84158 320.43342,160.81498 320.27152,160.78358 320.11292,160.74718 319.95802,160.70568 319.80692,160.65898 319.66002,160.60668 319.51782,160.54858 319.38092,160.48398 319.25052,160.41178 319.12972,160.32838 318.64412,159.90098 318.45692,160.10698 318.26322,160.30698 318.06322,160.50068 317.85722,160.68788 318.28462,161.17348 318.36802,161.29428 318.44022,161.42468 318.50482,161.56158 318.56292,161.70378 318.61522,161.85068 318.66192,162.00178 318.70342,162.15668 318.73982,162.31528 318.77122,162.47718 318.79782,162.64228 318.81952,162.81038 318.68142,162.91578 318.54162,163.01898 318.40032,163.11998 318.25742,163.21868 318.10422,163.14618 317.95542,163.06988 317.81112,162.98998 317.67162,162.90638 317.53712,162.81908 317.40782,162.72788 317.28432,162.63278 317.16702,162.53358 317.05682,162.42978 316.95502,162.32088 316.86592,162.20428 316.53622,161.64768 316.29442,161.78578 316.04842,161.91608 315.79842,162.03848 315.54462,162.15288 315.80102,162.74688 315.84302,162.88748 315.87132,163.03388 315.89052,163.18398 315.90182,163.33718 315.90612,163.49298 315.90392,163.65118 315.89552,163.81138 315.88112,163.97338 315.86102,164.13708 315.83522,164.30228 315.80392,164.46888 315.64002,164.52638 315.47522,164.58138 315.30962,164.63378 315.14312,164.68358 315.01992,164.56718 314.90192,164.44868 314.78942,164.32808 314.68252,164.20548 314.58162,164.08078 314.48682,163.95418 314.39872,163.82558 314.31782,163.69498 314.24502,163.56228 314.18202,163.42718 314.13322,163.28878 313.99162,162.65748 313.71902,162.71418 313.44482,162.76208 313.16922,162.80118 312.89242,162.83158 312.95282,163.47568 312.94922,163.62238 312.93102,163.77038 312.90282,163.91908 312.86622,164.06828 312.82222,164.21788 312.77122,164.36758 312.71372,164.51728 312.65002,164.66698 312.58022,164.81648 312.50462,164.96558 312.42342,165.11428 312.24972,165.11838 312.07602,165.11978 311.90232,165.11838 311.72862,165.11428 311.64742,164.96558 311.57182,164.81648 311.50202,164.66698 311.43832,164.51728 311.38082,164.36758 311.32982,164.21788 311.28582,164.06828 311.24922,163.91908 311.22102,163.77038 311.20282,163.62238 311.19922,163.47568 311.25962,162.83158 310.98282,162.80118 310.70722,162.76208 310.43302,162.71418 310.16042,162.65748 310.01882,163.28878 309.97002,163.42718 309.90702,163.56228 309.83422,163.69498 309.75332,163.82558 309.66522,163.95418 309.57042,164.08078 309.46952,164.20548 309.36262,164.32808 309.25012,164.44868 309.13212,164.56718 309.00892,164.68358 308.84242,164.63378 308.67682,164.58138 308.51202,164.52638 308.34812,164.46888 308.31682,164.30228 308.29102,164.13708 308.27092,163.97338 308.25652,163.81138 308.24812,163.65118 308.24592,163.49298 308.25022,163.33718 308.26152,163.18398 308.28072,163.03388 308.30902,162.88748 308.35102,162.74688 308.60742,162.15288 308.35362,162.03848 308.10362,161.91608 307.85762,161.78578 307.61582,161.64768 307.28612,162.20428 307.19702,162.32088 307.09522,162.42978 306.98502,162.53358 306.86772,162.63278 306.74422,162.72788 306.61492,162.81908 306.48042,162.90638 306.34092,162.98998 306.19662,163.06988 306.04782,163.14618 305.89462,163.21868 305.75172,163.11998 305.61042,163.01898 305.47062,162.91578 305.33252,162.81038 305.35422,162.64228 305.38082,162.47718 305.41222,162.31528 305.44862,162.15668 305.49012,162.00178 305.53682,161.85068 305.58912,161.70378 305.64722,161.56158 305.71182,161.42468 305.78402,161.29428 305.86742,161.17348 306.29482,160.68788 306.08882,160.50068 305.88882,160.30698 305.69512,160.10698 305.50792,159.90098 305.02232,160.32838 304.90152,160.41178 304.77112,160.48398 304.63422,160.54858 304.49202,160.60668 304.34512,160.65898 304.19402,160.70568 304.03912,160.74718 303.88052,160.78358 303.71862,160.81498 303.55352,160.84158 303.38542,160.86328 303.28002,160.72518 303.17682,160.58538 303.07582,160.44408 302.97712,160.30118 303.04962,160.14798 303.12592,159.99918 303.20582,159.85488 303.28942,159.71538 303.37672,159.58088 303.46792,159.45158 303.56302,159.32808 303.66222,159.21078 303.76602,159.10058 303.87492,158.99878 303.99152,158.90968 304.54812,158.57998 304.41002,158.33818 304.27972,158.09218 304.15732,157.84218 304.04292,157.58838 303.44892,157.84478 303.30832,157.88678 303.16192,157.91508 303.01182,157.93428 302.85862,157.94558 302.70282,157.94988 302.54462,157.94768 302.38442,157.93928 302.22242,157.92488 302.05872,157.90478 301.89352,157.87898 301.72692,157.84768 301.66942,157.68378 301.61442,157.51898 301.56202,157.35338 301.51222,157.18688 301.62862,157.06368 301.74712,156.94568 301.86772,156.83318 301.99032,156.72628 302.11502,156.62538 302.24162,156.53058 302.37022,156.44248 302.50082,156.36158 302.63352,156.28878 302.76862,156.22578 302.90702,156.17698 303.53832,156.03538 303.48162,155.76278 303.43372,155.48858 303.39462,155.21298 303.36422,154.93618 302.72012,154.99658 302.57342,154.99298 302.42542,154.97478 302.27672,154.94658 302.12752,154.90998 301.97792,154.86598 301.82822,154.81498 301.67852,154.75748 301.52882,154.69378 301.37932,154.62398 301.23022,154.54838 301.08152,154.46718 301.07742,154.29348 301.07602,154.11978 301.07742,153.94608 301.08152,153.77238 301.23022,153.69118 301.37932,153.61558 301.52882,153.54578 301.67852,153.48208 301.82822,153.42458 301.97792,153.37358 302.12752,153.32958 302.27672,153.29298 302.42542,153.26478 302.57342,153.24658 302.72012,153.24298 303.36422,153.30338 303.39462,153.02658 303.43372,152.75098 303.48162,152.47678 303.53832,152.20418 302.90702,152.06258 302.76862,152.01378 302.63352,151.95078 302.50082,151.87798 302.37022,151.79708 302.24162,151.70898 302.11502,151.61418 301.99032,151.51328 301.86772,151.40638 301.74712,151.29388 301.62862,151.17588 301.51222,151.05268 301.56202,150.88618 301.61442,150.72058 301.66942,150.55578 301.72692,150.39188 301.89352,150.36058 302.05872,150.33478 302.22242,150.31468 302.38442,150.30028 302.54462,150.29188 302.70282,150.28968 302.85862,150.29398 303.01182,150.30528 303.16192,150.32448 303.30832,150.35278 303.44892,150.39478 304.04292,150.65118 304.15732,150.39738 304.27972,150.14738 304.41002,149.90138 304.54812,149.65958 303.99152,149.32988 303.87492,149.24078 303.76602,149.13898 303.66222,149.02878 303.56302,148.91148 303.46792,148.78798 303.37672,148.65868 303.28942,148.52418 303.20582,148.38468 303.12592,148.24038 303.04962,148.09158 302.97712,147.93838 303.07582,147.79548 303.17682,147.65418 303.28002,147.51438 303.38542,147.37628 303.55352,147.39798 303.71862,147.42458 303.88052,147.45598 304.03912,147.49238 304.19402,147.53388 304.34512,147.58058 304.49202,147.63288 304.63422,147.69098 304.77112,147.75558 304.90152,147.82778 305.02232,147.91118 305.50792,148.33858 305.69512,148.13258 305.88882,147.93258 306.08882,147.73888 306.29482,147.55168 305.86742,147.06608 305.78402,146.94528 305.71182,146.81488 305.64722,146.67798 305.58912,146.53578 305.53682,146.38888 305.49012,146.23778 305.44862,146.08288 305.41222,145.92428 305.38082,145.76238 305.35422,145.59728 305.33252,145.42918 305.47062,145.32378 305.61042,145.22058 305.75172,145.11958 305.89462,145.02088 306.04782,145.09338 306.19662,145.16968 306.34092,145.24958 306.48042,145.33318 306.61492,145.42048 306.74422,145.51168 306.86772,145.60678 306.98502,145.70598 307.09522,145.80978 307.19702,145.91868 307.28612,146.03528 307.61582,146.59188 307.85762,146.45378 308.10362,146.32348 308.35362,146.20108 308.60742,146.08668 308.35102,145.49268 308.30902,145.35208 308.28072,145.20568 308.26152,145.05558 308.25022,144.90238 308.24592,144.74658 308.24812,144.58838 308.25652,144.42818 308.27092,144.26618 308.29102,144.10248 308.31682,143.93728 308.34812,143.77068 308.51202,143.71318 308.67682,143.65818 308.84242,143.60578 309.00892,143.55598 309.13212,143.67238 309.25012,143.79088 309.36262,143.91148 309.46952,144.03408 309.57042,144.15878 309.66522,144.28538 309.75332,144.41398 309.83422,144.54458 309.90702,144.67728 309.97002,144.81238 310.01882,144.95078 310.16042,145.58208 310.43302,145.52538 310.70722,145.47748 310.98282,145.43838 311.25962,145.40798 311.19922,144.76388 311.20282,144.61718 311.22102,144.46918 311.24922,144.32048 311.28582,144.17128 311.32982,144.02168 311.38082,143.87198 311.43832,143.72228 311.50202,143.57258 311.57182,143.42308 311.64742,143.27398 311.72862,143.12528 311.90232,143.12118 312.07602,143.11978 312.24972,143.12118 312.42342,143.12528 312.50462,143.27398 312.58022,143.42308 312.65002,143.57258 312.71372,143.72228 312.77122,143.87198 312.82222,144.02168 312.86622,144.17128 312.90282,144.32048 312.93102,144.46918 312.94922,144.61718 312.95282,144.76388 312.89242,145.40798 313.16922,145.43838 313.44482,145.47748 313.71902,145.52538 313.99162,145.58208 314.13322,144.95078 314.18202,144.81238 314.24502,144.67728 314.31782,144.54458 314.39872,144.41398 314.48682,144.28538 314.58162,144.15878 314.68252,144.03408 314.78942,143.91148 314.90192,143.79088 315.01992,143.67238 315.14312,143.55598 315.30962,143.60578 315.47522,143.65818 315.64002,143.71318 315.80392,143.77068 315.83522,143.93728 315.86102,144.10248 315.88112,144.26618 315.89552,144.42818 315.90392,144.58838 315.90612,144.74658 315.90182,144.90238 315.89052,145.05558 315.87132,145.20568 315.84302,145.35208 315.80102,145.49268 315.54462,146.08668 315.79842,146.20108 316.04842,146.32348 316.29442,146.45378 316.53622,146.59188 316.86592,146.03528 316.95502,145.91868 317.05682,145.80978 317.16702,145.70598 317.28432,145.60678 317.40782,145.51168 317.53712,145.42048 317.67162,145.33318 317.81112,145.24958 317.95542,145.16968 318.10422,145.09338 318.25742,145.02088 318.40032,145.11958 318.54162,145.22058 318.68142,145.32378 318.81952,145.42918 318.79782,145.59728 318.77122,145.76238 318.73982,145.92428 318.70342,146.08288 318.66192,146.23778 318.61522,146.38888 318.56292,146.53578 318.50482,146.67798 318.44022,146.81488 318.36802,146.94528 318.28462,147.06608 317.85722,147.55168 318.06322,147.73888 318.26322,147.93258 318.45692,148.13258 318.64412,148.33858 319.12972,147.91118 319.25052,147.82778 319.38092,147.75558 319.51782,147.69098 319.66002,147.63288 319.80692,147.58058 319.95802,147.53388 320.11292,147.49238 320.27152,147.45598 320.43342,147.42458 320.59852,147.39798 320.76662,147.37628 320.87202,147.51438 320.97522,147.65418 321.07622,147.79548 321.17492,147.93838 321.10242,148.09158 321.02612,148.24038 320.94622,148.38468 320.86262,148.52418 320.77532,148.65868 320.68412,148.78798 320.58902,148.91148 320.48982,149.02878 320.38602,149.13898 320.27712,149.24078 320.16052,149.32988 319.60392,149.65958 319.74202,149.90138 319.87232,150.14738 319.99472,150.39738 320.10912,150.65118 320.70312,150.39478 320.84372,150.35278 320.99012,150.32448 321.14022,150.30528 321.29342,150.29398 321.44922,150.28968 321.60742,150.29188 321.76762,150.30028 321.92962,150.31468 322.09332,150.33478 322.25852,150.36058 322.42512,150.39188 322.48262,150.55578 322.53762,150.72058 322.59002,150.88618 322.63982,151.05268 322.52342,151.17588 322.40492,151.29388 322.28432,151.40638 322.16172,151.51328 322.03702,151.61418 321.91042,151.70898 321.78182,151.79708 321.65122,151.87798 321.51852,151.95078 321.38342,152.01378 321.24502,152.06258 320.61372,152.20418 320.67042,152.47678 320.71832,152.75098 320.75742,153.02658 320.78782,153.30338 Z"
       id="path1" />
    <path
       style="fill:none;stroke:#0000ff;stroke-width:0.1"
       d=""
       id="path2" />
    <path
       style="fill:none;stroke:#660066;stroke-width:0.1"
       d=""
       id="path3" />
    <path
       style="fill:none;stroke:#006633;stroke-width:0.1"
       d=""
       id="path4" />
    <path
       style="fill:none;stroke:#006633;stroke-width:0.1"
       d=""
       id="path5" />
    <g
       inkscape:label="RackGear10"
       transform="translate(310.50522,164.11978)"
       id="g6"
       style="stroke-width:0.7;stroke-dasharray:none">
      <path
         style="fill:none;stroke:#663300;stroke-width:0.7;stroke-dasharray:none"
         d="M -18.7157,6 V 1 H -13.7157 L -12.9878,-1 H -12.1449 L -11.417,1 H -10.5741 L -9.8462,-1 H -9.0034 L -8.2754,1 H -7.4326 L -6.7046,-1 H -5.8618 L -5.1338,1 H -4.291 L -3.563,-1 H -2.7202 L -1.9922,1 H -1.1494 L -0.4214,-1 H 0.4214 L 1.1494,1 H 1.9922 L 2.7202,-1 H 3.563 L 4.291,1 H 5.1338 L 5.8618,-1 H 6.7046 L 7.4326,1 H 8.2754 L 9.0034,-1 H 9.8462 L 10.5741,1 H 11.417 L 12.1449,-1 H 12.9878 L 13.7157,1 H 14.5586 L 15.2865,-1 H 16.1294 L 16.8573,1 H 21.8573 V 6 Z"
         id="path6" />
    </g>
  </g>
</svg>
