<?xml version="1.0" encoding="UTF-8" standalone="no"?>
<svg
   width="75mm"
   height="72mm"
   viewBox="0 0 74.999998 71.999999"
   version="1.1"
   id="svg8"
   inkscape:version="1.3.2 (091e20e, 2023-11-25, custom)"
   sodipodi:docname="Engrenage-3.svg"
   xmlns:inkscape="http://www.inkscape.org/namespaces/inkscape"
   xmlns:sodipodi="http://sodipodi.sourceforge.net/DTD/sodipodi-0.dtd"
   xmlns="http://www.w3.org/2000/svg"
   xmlns:svg="http://www.w3.org/2000/svg"
   xmlns:rdf="http://www.w3.org/1999/02/22-rdf-syntax-ns#"
   xmlns:cc="http://creativecommons.org/ns#"
   xmlns:dc="http://purl.org/dc/elements/1.1/">
  <sodipodi:namedview
     id="base"
     pagecolor="#ffffff"
     bordercolor="#666666"
     borderopacity="1.0"
     inkscape:pageopacity="0.0"
     inkscape:pageshadow="2"
     inkscape:zoom="1.4142136"
     inkscape:cx="175.00892"
     inkscape:cy="203.64674"
     inkscape:document-units="mm"
     inkscape:current-layer="layer3"
     showgrid="true"
     inkscape:window-width="1920"
     inkscape:window-height="1057"
     inkscape:window-x="-8"
     inkscape:window-y="-8"
     inkscape:window-maximized="1"
     inkscape:snap-grids="true"
     inkscape:pagecheckerboard="false"
     borderlayer="true"
     inkscape:snap-path-clip="true"
     inkscape:document-rotation="0"
     inkscape:showpageshadow="2"
     inkscape:deskcolor="#d1d1d1">
    <inkscape:grid
       type="xygrid"
       id="grid25"
       units="mm"
       spacingx="0.5"
       spacingy="0.50000001"
       empspacing="10"
       snapvisiblegridlinesonly="false"
       originx="-266.67328"
       originy="-121.46671"
       visible="true" />
  </sodipodi:namedview>
  <defs
     id="defs2" />
  <metadata
     id="metadata5">
    <rdf:RDF>
      <cc:Work
         rdf:about="">
        <dc:format>image/svg+xml</dc:format>
        <dc:type
           rdf:resource="http://purl.org/dc/dcmitype/StillImage" />
        <cc:license
           rdf:resource="http://creativecommons.org/licenses/by-nc-sa/4.0/" />
      </cc:Work>
      <cc:License
         rdf:about="http://creativecommons.org/licenses/by-nc-sa/4.0/">
        <cc:permits
           rdf:resource="http://creativecommons.org/ns#Reproduction" />
        <cc:permits
           rdf:resource="http://creativecommons.org/ns#Distribution" />
        <cc:requires
           rdf:resource="http://creativecommons.org/ns#Notice" />
        <cc:requires
           rdf:resource="http://creativecommons.org/ns#Attribution" />
        <cc:prohibits
           rdf:resource="http://creativecommons.org/ns#CommercialUse" />
        <cc:permits
           rdf:resource="http://creativecommons.org/ns#DerivativeWorks" />
        <cc:requires
           rdf:resource="http://creativecommons.org/ns#ShareAlike" />
      </cc:License>
    </rdf:RDF>
  </metadata>
  <g
     inkscape:groupmode="layer"
     id="layer2"
     inkscape:label="Images-Gravures"
     transform="translate(-266.67327,-121.4667)" />
  <g
     inkscape:label="Marquage"
     inkscape:groupmode="layer"
     id="layer1"
     transform="translate(-266.67327,-121.4667)" />
  <g
     inkscape:groupmode="layer"
     id="layer3"
     inkscape:label="Découpes"
     transform="translate(-266.67327,-121.4667)">
    <g
       id="g1">
      <g
         inkscape:label="Gear30"
         inkscape:transform-center-y="1.7763568e-15"
         transform="translate(301.03167,154.9147)"
         info="N:30; Pitch:6.283185307179586; Pressure Angle: 20.0"
         id="g6">
        <path
           style="fill:none;stroke:#663300;stroke-width:0.1"
           d="M 28.127,-1.8948 28.895,-1.8264 29.6684,-1.6541 30.4437,-1.4091 31.2187,-1.1017 31.9915,-0.7373 32,0 31.9915,0.7373 31.2187,1.1017 30.4437,1.4091 29.6684,1.6541 28.895,1.8264 28.127,1.8948 27.4378,1.8484 27.3494,2.8745 27.2225,3.8967 27.9063,3.9945 28.6433,4.2211 29.364,4.5505 30.0714,4.9513 30.7656,5.4131 31.4457,5.9302 31.3007,6.6532 31.1391,7.3726 30.3075,7.5683 29.4855,7.7079 28.6762,7.7864 27.8838,7.7941 27.1184,7.7013 26.4539,7.5126 26.1541,8.498 25.8175,9.4714 26.466,9.7093 27.1397,10.0841 27.7762,10.5561 28.3849,11.0953 28.9678,11.6914 29.5256,12.3385 29.2335,13.0156 28.9258,13.6857 28.0716,13.7042 27.2386,13.6699 26.4306,13.5783 25.654,13.4212 24.9246,13.1713 24.3139,12.8485 23.8157,13.75 23.2841,14.6322 23.869,14.9997 24.4501,15.5064 24.9745,16.1005 25.4577,16.7544 25.904,17.4586 26.3151,18.2076 25.8885,18.8091 25.4483,19.4007 24.6089,19.2412 23.8012,19.0344 23.03,18.7768 22.303,18.4617 21.6415,18.0656 21.1112,17.6229 20.4365,18.4011 19.7331,19.1535 20.2288,19.6346 20.6918,20.251 21.0813,20.9411 21.418,21.6812 21.7081,22.4629 21.9544,23.2809 21.4122,23.7806 20.8585,24.2677 20.0707,23.9372 19.3237,23.567 18.6228,23.1547 17.9772,22.6953 17.4125,22.1703 16.9859,21.6271 16.1641,22.248 15.3196,22.8377 15.7045,23.4113 16.0292,24.1105 16.2667,24.8665 16.4422,25.6605 16.5634,26.4854 16.6343,27.3368 16,27.7128 15.3572,28.0741 14.6553,27.587 14.0015,27.0696 13.4017,26.5206 12.8657,25.937 12.4226,25.3061 12.1182,24.686 11.1853,25.1225 10.2367,25.5237 10.4938,26.1649 10.6661,26.9163 10.7412,27.7052 10.7478,28.5183 10.6949,29.3503 10.5872,30.1979 9.8885,30.4338 9.1847,30.6536 8.5994,30.0312 8.0675,29.3891 7.5949,28.7275 7.192,28.0451 6.8897,27.3359 6.7208,26.6661 5.7176,26.8991 4.7063,27.0943 4.8245,27.7749 4.8368,28.5458 4.7462,29.333 4.5836,30.1297 4.3589,30.9325 4.0773,31.7392 3.3449,31.8247 2.6107,31.8933 2.1676,31.1629 1.7809,30.4242 1.4562,29.6788 1.2039,28.9276 1.0557,28.171 1.0298,27.4807 0,27.5 -1.0298,27.4807 -1.0557,28.171 -1.2039,28.9276 -1.4562,29.6788 -1.7809,30.4242 -2.1676,31.1629 -2.6107,31.8933 -3.3449,31.8247 -4.0773,31.7392 -4.3589,30.9325 -4.5836,30.1297 -4.7462,29.333 -4.8368,28.5458 -4.8245,27.7749 -4.7063,27.0943 -5.7176,26.8991 -6.7208,26.6661 -6.8897,27.3359 -7.192,28.0451 -7.5949,28.7275 -8.0675,29.3891 -8.5994,30.0312 -9.1847,30.6536 -9.8885,30.4338 -10.5872,30.1979 -10.6949,29.3503 -10.7478,28.5183 -10.7412,27.7052 -10.6661,26.9163 -10.4938,26.1649 -10.2367,25.5237 -11.1853,25.1225 -12.1182,24.686 -12.4226,25.3061 -12.8657,25.937 -13.4017,26.5206 -14.0015,27.0696 -14.6553,27.587 -15.3572,28.0741 -16,27.7128 -16.6343,27.3368 -16.5634,26.4854 -16.4422,25.6605 -16.2667,24.8665 -16.0292,24.1105 -15.7045,23.4113 -15.3196,22.8377 -16.1641,22.248 -16.9859,21.6271 -17.4125,22.1703 -17.9772,22.6953 -18.6228,23.1547 -19.3237,23.567 -20.0707,23.9372 -20.8585,24.2677 -21.4122,23.7806 -21.9544,23.2809 -21.7081,22.4629 -21.418,21.6812 -21.0813,20.9411 -20.6918,20.251 -20.2288,19.6346 -19.7331,19.1535 -20.4365,18.4011 -21.1112,17.6229 -21.6415,18.0656 -22.303,18.4617 -23.03,18.7768 -23.8012,19.0344 -24.6089,19.2412 -25.4483,19.4007 -25.8885,18.8091 -26.3151,18.2076 -25.904,17.4586 -25.4577,16.7544 -24.9745,16.1005 -24.4501,15.5064 -23.869,14.9997 -23.2841,14.6322 -23.8157,13.75 -24.3139,12.8485 -24.9246,13.1713 -25.654,13.4212 -26.4306,13.5783 -27.2386,13.6699 -28.0716,13.7042 -28.9258,13.6857 -29.2335,13.0156 -29.5256,12.3385 -28.9678,11.6914 -28.3849,11.0953 -27.7762,10.5561 -27.1397,10.0841 -26.466,9.7093 -25.8175,9.4714 -26.1541,8.498 -26.4539,7.5126 -27.1184,7.7013 -27.8838,7.7941 -28.6762,7.7864 -29.4855,7.7079 -30.3075,7.5683 -31.1391,7.3726 -31.3007,6.6532 -31.4457,5.9302 -30.7656,5.4131 -30.0714,4.9513 -29.364,4.5505 -28.6433,4.2211 -27.9063,3.9945 -27.2225,3.8967 -27.3494,2.8745 -27.4378,1.8484 -28.127,1.8948 -28.895,1.8264 -29.6684,1.6541 -30.4437,1.4091 -31.2187,1.1017 -31.9915,0.7373 -32,0 -31.9915,-0.7373 -31.2187,-1.1017 -30.4437,-1.4091 -29.6684,-1.6541 -28.895,-1.8264 -28.127,-1.8948 -27.4378,-1.8484 -27.3494,-2.8745 -27.2225,-3.8967 -27.9063,-3.9945 -28.6433,-4.2211 -29.364,-4.5505 -30.0714,-4.9513 -30.7656,-5.4131 -31.4457,-5.9302 -31.3007,-6.6532 -31.1391,-7.3726 -30.3075,-7.5683 -29.4855,-7.7079 -28.6762,-7.7864 -27.8838,-7.7941 -27.1184,-7.7013 -26.4539,-7.5126 -26.1541,-8.498 -25.8175,-9.4714 -26.466,-9.7093 -27.1397,-10.0841 -27.7762,-10.5561 -28.3849,-11.0953 -28.9678,-11.6914 -29.5256,-12.3385 -29.2335,-13.0156 -28.9258,-13.6857 -28.0716,-13.7042 -27.2386,-13.6699 -26.4306,-13.5783 -25.654,-13.4212 -24.9246,-13.1713 -24.3139,-12.8485 -23.8157,-13.75 -23.2841,-14.6322 -23.869,-14.9997 -24.4501,-15.5064 -24.9745,-16.1005 -25.4577,-16.7544 -25.904,-17.4586 -26.3151,-18.2076 -25.8885,-18.8091 -25.4483,-19.4007 -24.6089,-19.2412 -23.8012,-19.0344 -23.03,-18.7768 -22.303,-18.4617 -21.6415,-18.0656 -21.1112,-17.6229 -20.4365,-18.4011 -19.7331,-19.1535 -20.2288,-19.6346 -20.6918,-20.251 -21.0813,-20.9411 -21.418,-21.6812 -21.7081,-22.4629 -21.9544,-23.2809 -21.4122,-23.7806 -20.8585,-24.2677 -20.0707,-23.9372 -19.3237,-23.567 -18.6228,-23.1547 -17.9772,-22.6953 -17.4125,-22.1703 -16.9859,-21.6271 -16.1641,-22.248 -15.3196,-22.8377 -15.7045,-23.4113 -16.0292,-24.1105 -16.2667,-24.8665 -16.4422,-25.6605 -16.5634,-26.4854 -16.6343,-27.3368 -16,-27.7128 -15.3572,-28.0741 -14.6553,-27.587 -14.0015,-27.0696 -13.4017,-26.5206 -12.8657,-25.937 -12.4226,-25.3061 -12.1182,-24.686 -11.1853,-25.1225 -10.2367,-25.5237 -10.4938,-26.1649 -10.6661,-26.9163 -10.7412,-27.7052 -10.7478,-28.5183 -10.6949,-29.3503 -10.5872,-30.1979 -9.8885,-30.4338 -9.1847,-30.6536 -8.5994,-30.0312 -8.0675,-29.3891 -7.5949,-28.7275 -7.192,-28.0451 -6.8897,-27.3359 -6.7208,-26.6661 -5.7176,-26.8991 -4.7063,-27.0943 -4.8245,-27.7749 -4.8368,-28.5458 -4.7462,-29.333 -4.5836,-30.1297 -4.3589,-30.9325 -4.0773,-31.7392 -3.3449,-31.8247 -2.6107,-31.8933 -2.1676,-31.1629 -1.7809,-30.4242 -1.4562,-29.6788 -1.2039,-28.9276 -1.0557,-28.171 -1.0298,-27.4807 0,-27.5 1.0298,-27.4807 1.0557,-28.171 1.2039,-28.9276 1.4562,-29.6788 1.7809,-30.4242 2.1676,-31.1629 2.6107,-31.8933 3.3449,-31.8247 4.0773,-31.7392 4.3589,-30.9325 4.5836,-30.1297 4.7462,-29.333 4.8368,-28.5458 4.8245,-27.7749 4.7063,-27.0943 5.7176,-26.8991 6.7208,-26.6661 6.8897,-27.3359 7.192,-28.0451 7.5949,-28.7275 8.0675,-29.3891 8.5994,-30.0312 9.1847,-30.6536 9.8885,-30.4338 10.5872,-30.1979 10.6949,-29.3503 10.7478,-28.5183 10.7412,-27.7052 10.6661,-26.9163 10.4938,-26.1649 10.2367,-25.5237 11.1853,-25.1225 12.1182,-24.686 12.4226,-25.3061 12.8657,-25.937 13.4017,-26.5206 14.0015,-27.0696 14.6553,-27.587 15.3572,-28.0741 16,-27.7128 16.6343,-27.3368 16.5634,-26.4854 16.4422,-25.6605 16.2667,-24.8665 16.0292,-24.1105 15.7045,-23.4113 15.3196,-22.8377 16.1641,-22.248 16.9859,-21.6271 17.4125,-22.1703 17.9772,-22.6953 18.6228,-23.1547 19.3237,-23.567 20.0707,-23.9372 20.8585,-24.2677 21.4122,-23.7806 21.9544,-23.2809 21.7081,-22.4629 21.418,-21.6812 21.0813,-20.9411 20.6918,-20.251 20.2288,-19.6346 19.7331,-19.1535 20.4365,-18.4011 21.1112,-17.6229 21.6415,-18.0656 22.303,-18.4617 23.03,-18.7768 23.8012,-19.0344 24.6089,-19.2412 25.4483,-19.4007 25.8885,-18.8091 26.3151,-18.2076 25.904,-17.4586 25.4577,-16.7544 24.9745,-16.1005 24.4501,-15.5064 23.869,-14.9997 23.2841,-14.6322 23.8157,-13.75 24.3139,-12.8485 24.9246,-13.1713 25.654,-13.4212 26.4306,-13.5783 27.2386,-13.6699 28.0716,-13.7042 28.9258,-13.6857 29.2335,-13.0156 29.5256,-12.3385 28.9678,-11.6914 28.3849,-11.0953 27.7762,-10.5561 27.1397,-10.0841 26.466,-9.7093 25.8175,-9.4714 26.1541,-8.498 26.4539,-7.5126 27.1184,-7.7013 27.8838,-7.7941 28.6762,-7.7864 29.4855,-7.7079 30.3075,-7.5683 31.1391,-7.3726 31.3007,-6.6532 31.4457,-5.9302 30.7656,-5.4131 30.0714,-4.9513 29.364,-4.5505 28.6433,-4.2211 27.9063,-3.9945 27.2225,-3.8967 27.3494,-2.8745 27.4378,-1.8484 Z"
           id="path1" />
        <path
           style="fill:none;stroke:#0000ff;stroke-width:0.1"
           d="M 1.4214749,2.02536 1.3160389,2.521348 0.8488409,2.324252 0.6186209,2.776051 0.2183549,2.464752 -0.1209501,2.841571 -0.4270111,2.437282 -0.8522851,2.713442 -1.0432761,2.243715 -1.5255331,2.400397 -1.5884451,1.897243 -2.0948201,1.923769 -2.0253621,1.421477 -2.5213501,1.316039 -2.3242561,0.84884 -2.7760541,0.618623 -2.4647541,0.218355 -2.8415711,-0.120951 -2.4372851,-0.427009 -2.7134451,-0.852282 -2.2437171,-1.043274 -2.4003991,-1.525532 -1.8972441,-1.588442 -1.9237681,-2.094819 -1.4214771,-2.02536 -1.3160421,-2.521348 -0.8488391,-2.324253 -0.6186241,-2.776051 -0.2183581,-2.464752 0.1209509,-2.841571 0.4270079,-2.437282 0.8522819,-2.713442 1.0432729,-2.243715 1.5255309,-2.400397 1.5884419,-1.897243 2.0948169,-1.923769 2.0253599,-1.421478 2.5213469,-1.316039 2.3242529,-0.84884 2.7760509,-0.618624 2.4647519,-0.218356 2.8415689,0.12095 2.4372819,0.427009 2.7134419,0.852282 2.2437139,1.043274 2.4003959,1.525532 1.8972409,1.588442 1.9237689,2.094819 Z"
           id="path2" />
        <path
           style="fill:none;stroke:#660066;stroke-width:0.1"
           d=""
           id="path3" />
        <path
           style="fill:none;stroke:#006633;stroke-width:0.1"
           d="M 9.682458,2.5 A 10,10 0 0 1 7.006293,7.135255 L 13.345403,18.114917 A 22.5,22.5 0 0 0 22.36068,2.5 Z M 2.676166,9.635255 A 10,10 0 0 1 -2.676166,9.635255 L -9.015276,20.614917 A 22.5,22.5 0 0 0 9.015276,20.614917 Z M -7.006293,7.135255 A 10,10 0 0 1 -9.682458,2.5 H -22.36068 A 22.5,22.5 0 0 0 -13.345403,18.114917 Z M -9.682458,-2.5 A 10,10 0 0 1 -7.006293,-7.135255 L -13.345403,-18.114917 A 22.5,22.5 0 0 0 -22.36068,-2.5 Z M -2.676166,-9.635255 A 10,10 0 0 1 2.676166,-9.635255 L 9.015276,-20.614917 A 22.5,22.5 0 0 0 -9.015276,-20.614917 Z M 7.006293,-7.135255 A 10,10 0 0 1 9.682458,-2.5 H 22.36068 A 22.5,22.5 0 0 0 13.345403,-18.114917 Z"
           id="path4" />
        <g
           inkscape:label="RackGear10"
           transform="translate(0,30)"
           id="g5">
          <path
             style="fill:none;stroke:#663300;stroke-width:0.1"
             d="M -32.4315,7 V 2 H -27.4315 L -25.9756,-2 H -24.2899 L -22.834,2 H -21.1483 L -19.6924,-2 H -18.0067 L -16.5508,2 H -14.8651 L -13.4092,-2 H -11.7235 L -10.2676,2 H -8.5819 L -7.126,-2 H -5.4403 L -3.9844,2 H -2.2987 L -0.8429,-2 H 0.8429 L 2.2987,2 H 3.9844 L 5.4403,-2 H 7.126 L 8.5819,2 H 10.2676 L 11.7235,-2 H 13.4092 L 14.8651,2 H 16.5508 L 18.0067,-2 H 19.6924 L 21.1483,2 H 22.834 L 24.2899,-2 H 25.9756 L 27.4315,2 H 29.1172 L 30.5731,-2 H 32.2588 L 33.7147,2 H 38.7147 V 7 Z"
             id="path5" />
        </g>
      </g>
      <text
         xml:space="preserve"
         style="font-size:4.58611px;line-height:1.25;font-family:sans-serif;-inkscape-font-specification:sans-serif;letter-spacing:0px;word-spacing:0px;fill:#2e77e1;fill-opacity:1;stroke-width:0.264583"
         x="291.69678"
         y="190.92766"
         id="text6"><tspan
           sodipodi:role="line"
           id="tspan6"
           style="font-size:4.58611px;fill:#2e77e1;fill-opacity:1;stroke-width:0.264583"
           x="291.69678"
           y="190.92766">Crémaillère </tspan></text>
    </g>
  </g>
</svg>
