<?xml version="1.0" encoding="UTF-8" standalone="no"?>
<svg
   width="95mm"
   height="70mm"
   viewBox="0 0 95 69.999999"
   version="1.1"
   id="svg8"
   inkscape:version="1.3.2 (091e20e, 2023-11-25, custom)"
   sodipodi:docname="Engrenage-2.svg"
   xmlns:inkscape="http://www.inkscape.org/namespaces/inkscape"
   xmlns:sodipodi="http://sodipodi.sourceforge.net/DTD/sodipodi-0.dtd"
   xmlns="http://www.w3.org/2000/svg"
   xmlns:svg="http://www.w3.org/2000/svg"
   xmlns:rdf="http://www.w3.org/1999/02/22-rdf-syntax-ns#"
   xmlns:cc="http://creativecommons.org/ns#"
   xmlns:dc="http://purl.org/dc/elements/1.1/">
  <sodipodi:namedview
     id="base"
     pagecolor="#ffffff"
     bordercolor="#666666"
     borderopacity="1.0"
     inkscape:pageopacity="0.0"
     inkscape:pageshadow="2"
     inkscape:zoom="1"
     inkscape:cx="607.5"
     inkscape:cy="207"
     inkscape:document-units="mm"
     inkscape:current-layer="svg8"
     showgrid="true"
     inkscape:window-width="1920"
     inkscape:window-height="1057"
     inkscape:window-x="-8"
     inkscape:window-y="-8"
     inkscape:window-maximized="1"
     inkscape:snap-grids="true"
     inkscape:pagecheckerboard="false"
     borderlayer="true"
     inkscape:snap-path-clip="true"
     inkscape:document-rotation="0"
     inkscape:showpageshadow="2"
     inkscape:deskcolor="#d1d1d1">
    <inkscape:grid
       type="xygrid"
       id="grid25"
       units="mm"
       spacingx="0.5"
       spacingy="0.50000001"
       empspacing="10"
       snapvisiblegridlinesonly="false"
       originx="-805.49915"
       originy="-782.91101"
       visible="true" />
  </sodipodi:namedview>
  <defs
     id="defs2" />
  <metadata
     id="metadata5">
    <rdf:RDF>
      <cc:Work
         rdf:about="">
        <dc:format>image/svg+xml</dc:format>
        <dc:type
           rdf:resource="http://purl.org/dc/dcmitype/StillImage" />
        <cc:license
           rdf:resource="http://creativecommons.org/licenses/by-nc-sa/4.0/" />
      </cc:Work>
      <cc:License
         rdf:about="http://creativecommons.org/licenses/by-nc-sa/4.0/">
        <cc:permits
           rdf:resource="http://creativecommons.org/ns#Reproduction" />
        <cc:permits
           rdf:resource="http://creativecommons.org/ns#Distribution" />
        <cc:requires
           rdf:resource="http://creativecommons.org/ns#Notice" />
        <cc:requires
           rdf:resource="http://creativecommons.org/ns#Attribution" />
        <cc:prohibits
           rdf:resource="http://creativecommons.org/ns#CommercialUse" />
        <cc:permits
           rdf:resource="http://creativecommons.org/ns#DerivativeWorks" />
        <cc:requires
           rdf:resource="http://creativecommons.org/ns#ShareAlike" />
      </cc:License>
    </rdf:RDF>
  </metadata>
  <g
     inkscape:groupmode="layer"
     id="layer2"
     inkscape:label="Images-Gravures"
     transform="translate(-805.49919,-782.911)" />
  <g
     inkscape:label="Marquage"
     inkscape:groupmode="layer"
     id="layer1"
     transform="translate(-805.49919,-782.911)" />
  <g
     inkscape:groupmode="layer"
     id="layer3"
     inkscape:label="Découpes"
     transform="translate(-805.49919,-782.911)" />
  <path
     style="fill:none;stroke:#660066;stroke-width:0.1"
     d=""
     id="path793" />
  <g
     id="g1"
     transform="translate(1.6576267,2.9566099)">
    <path
       style="fill:none;stroke:#663300;stroke-width:0.1"
       d="M 60.177003,30.245985 60.945003,30.314385 61.718403,30.486685 62.493703,30.731685 63.268703,31.039085 64.041503,31.403485 64.050003,32.140785 64.041503,32.878085 63.268703,33.242485 62.493703,33.549885 61.718403,33.794885 60.945003,33.967185 60.177003,34.035585 59.487803,33.989185 59.399403,35.015285 59.272503,36.037485 59.956303,36.135285 60.693303,36.361885 61.414003,36.691285 62.121403,37.092085 62.815603,37.553885 63.495703,38.070985 63.350703,38.793985 63.189103,39.513385 62.357503,39.709085 61.535503,39.848685 60.726203,39.927185 59.933803,39.934885 59.168403,39.842085 58.503903,39.653385 58.204103,40.638785 57.867503,41.612185 58.516003,41.850085 59.189703,42.224885 59.826203,42.696885 60.434903,43.236085 61.017803,43.832185 61.575603,44.479285 61.283503,45.156385 60.975803,45.826485 60.121603,45.844985 59.288603,45.810685 58.480603,45.719085 57.704003,45.561985 56.974603,45.312085 56.363903,44.989285 55.865703,45.890785 55.334103,46.772985 55.919003,47.140485 56.500103,47.647185 57.024503,48.241285 57.507703,48.895185 57.954003,49.599385 58.365103,50.348385 57.938503,50.949885 57.498303,51.541485 56.658903,51.381985 55.851203,51.175185 55.080003,50.917585 54.353003,50.602485 53.691503,50.206385 53.161203,49.763685 52.486503,50.541885 51.783103,51.294285 52.278803,51.775385 52.741803,52.391785 53.131303,53.081885 53.468003,53.821985 53.758103,54.603685 54.004403,55.421685 53.462203,55.921385 52.908503,56.408485 52.120703,56.077985 51.373703,55.707785 50.672803,55.295485 50.027203,54.836085 49.462503,54.311085 49.035903,53.767885 48.214103,54.388785 47.369603,54.978485 47.754503,55.552085 48.079203,56.251285 48.316703,57.007285 48.492203,57.801285 48.613403,58.626185 48.684303,59.477585 48.050003,59.853585 47.407203,60.214885 46.705303,59.727785 46.051503,59.210385 45.451703,58.661385 44.915703,58.077785 44.472603,57.446885 44.168203,56.826785 43.235303,57.263285 42.286703,57.664485 42.543803,58.305685 42.716103,59.057085 42.791203,59.845985 42.797803,60.659085 42.744903,61.491085 42.637203,62.338685 41.938503,62.574585 41.234703,62.794385 40.649403,62.171985 40.117503,61.529885 39.644903,60.868285 39.242003,60.185885 38.939703,59.476685 38.770803,58.806885 37.767603,59.039885 36.756303,59.235085 36.874503,59.915685 36.886803,60.686585 36.796203,61.473785 36.633603,62.270485 36.408903,63.073285 36.127303,63.879985 35.394903,63.965485 34.660703,64.034085 34.217603,63.303685 33.830903,62.564985 33.506203,61.819585 33.253903,61.068385 33.105703,60.311785 33.079803,59.621485 32.050003,59.640785 31.020203,59.621485 30.994303,60.311785 30.846103,61.068385 30.593803,61.819585 30.269103,62.564985 29.882403,63.303685 29.439303,64.034085 28.705103,63.965485 27.972703,63.879985 27.691103,63.073285 27.466403,62.270485 27.303803,61.473785 27.213203,60.686585 27.225503,59.915685 27.343703,59.235085 26.332403,59.039885 25.329203,58.806885 25.160303,59.476685 24.858003,60.185885 24.455103,60.868285 23.982503,61.529885 23.450603,62.171985 22.865303,62.794385 22.161503,62.574585 21.462803,62.338685 21.355103,61.491085 21.302203,60.659085 21.308803,59.845985 21.383903,59.057085 21.556203,58.305685 21.813303,57.664485 20.864703,57.263285 19.931803,56.826785 19.627403,57.446885 19.184303,58.077785 18.648303,58.661385 18.048503,59.210385 17.394703,59.727785 16.692803,60.214885 16.050003,59.853585 15.415703,59.477585 15.486603,58.626185 15.607803,57.801285 15.783303,57.007285 16.020803,56.251285 16.345503,55.552085 16.730403,54.978485 15.885903,54.388785 15.064103,53.767885 14.637503,54.311085 14.072803,54.836085 13.427203,55.295485 12.726303,55.707785 11.979303,56.077985 11.191503,56.408485 10.637803,55.921385 10.095603,55.421685 10.341903,54.603685 10.632003,53.821985 10.968703,53.081885 11.358203,52.391785 11.821203,51.775385 12.316903,51.294285 11.613503,50.541885 10.938803,49.763685 10.408503,50.206385 9.7470033,50.602485 9.0200033,50.917585 8.2488033,51.175185 7.4411033,51.381985 6.6017033,51.541485 6.1615033,50.949885 5.7349033,50.348385 6.1460033,49.599385 6.5923033,48.895185 7.0755033,48.241285 7.5999033,47.647185 8.1810033,47.140485 8.7659033,46.772985 8.2343033,45.890785 7.7361033,44.989285 7.1254033,45.312085 6.3960033,45.561985 5.6194033,45.719085 4.8114033,45.810685 3.9784033,45.844985 3.1242033,45.826485 2.8165033,45.156385 2.5244033,44.479285 3.0822033,43.832185 3.6651033,43.236085 4.2738033,42.696885 4.9103033,42.224885 5.5840033,41.850085 6.2325033,41.612185 5.8959033,40.638785 5.5961033,39.653385 4.9316033,39.842085 4.1662033,39.934885 3.3738033,39.927185 2.5645033,39.848685 1.7425033,39.709085 0.91090332,39.513385 0.74930332,38.793985 0.60430332,38.070985 1.2844033,37.553885 1.9786033,37.092085 2.6860033,36.691285 3.4067033,36.361885 4.1437033,36.135285 4.8275033,36.037485 4.7006033,35.015285 4.6122033,33.989185 3.9230033,34.035585 3.1550033,33.967185 2.3816033,33.794885 1.6063033,33.549885 0.83130332,33.242485 0.05850332,32.878085 0.05000332,32.140785 0.05850332,31.403485 0.83130332,31.039085 1.6063033,30.731685 2.3816033,30.486685 3.1550033,30.314385 3.9230033,30.245985 4.6122033,30.292385 4.7006033,29.266285 4.8275033,28.244085 4.1437033,28.146285 3.4067033,27.919685 2.6860033,27.590285 1.9786033,27.189485 1.2844033,26.727685 0.60430332,26.210585 0.74930332,25.487585 0.91090332,24.768185 1.7425033,24.572485 2.5645033,24.432885 3.3738033,24.354385 4.1662033,24.346685 4.9316033,24.439485 5.5961033,24.628185 5.8959033,23.642785 6.2325033,22.669385 5.5840033,22.431485 4.9103033,22.056685 4.2738033,21.584685 3.6651033,21.045485 3.0822033,20.449385 2.5244033,19.802285 2.8165033,19.125185 3.1242033,18.455085 3.9784033,18.436585 4.8114033,18.470885 5.6194033,18.562485 6.3960033,18.719585 7.1254033,18.969485 7.7361033,19.292285 8.2343033,18.390785 8.7659033,17.508585 8.1810033,17.141085 7.5999033,16.634385 7.0755033,16.040285 6.5923033,15.386385 6.1460033,14.682185 5.7349033,13.933185 6.1615033,13.331685 6.6017033,12.740085 7.4411033,12.899585 8.2488033,13.106385 9.0200033,13.363985 9.7470033,13.679085 10.408503,14.075185 10.938803,14.517885 11.613503,13.739685 12.316903,12.987285 11.821203,12.506185 11.358203,11.889785 10.968703,11.199685 10.632003,10.459585 10.341903,9.6778848 10.095603,8.8598848 10.637803,8.3601848 11.191503,7.8730848 11.979303,8.2035848 12.726303,8.5737848 13.427203,8.9860848 14.072803,9.4454848 14.637503,9.9704848 15.064103,10.513685 15.885903,9.8927848 16.730403,9.3030848 16.345503,8.7294848 16.020803,8.0302848 15.783303,7.2742848 15.607803,6.4802848 15.486603,5.6553848 15.415703,4.8039848 16.050003,4.4279848 16.692803,4.0666848 17.394703,4.5537848 18.048503,5.0711848 18.648303,5.6201848 19.184303,6.2037848 19.627403,6.8346848 19.931803,7.4547848 20.864703,7.0182848 21.813303,6.6170848 21.556203,5.9758848 21.383903,5.2244848 21.308803,4.4355848 21.302203,3.6224848 21.355103,2.7904848 21.462803,1.9428848 22.161503,1.7069848 22.865303,1.4871848 23.450603,2.1095848 23.982503,2.7516848 24.455103,3.4132848 24.858003,4.0956848 25.160303,4.8048848 25.329203,5.4746848 26.332403,5.2416848 27.343703,5.0464848 27.225503,4.3658848 27.213203,3.5949848 27.303803,2.8077848 27.466403,2.0110848 27.691103,1.2082848 27.972703,0.40158482 28.705103,0.31608482 29.439303,0.24748482 29.882403,0.97788482 30.269103,1.7165848 30.593803,2.4619848 30.846103,3.2131848 30.994303,3.9697848 31.020203,4.6600848 32.050003,4.6407848 33.079803,4.6600848 33.105703,3.9697848 33.253903,3.2131848 33.506203,2.4619848 33.830903,1.7165848 34.217603,0.97788482 34.660703,0.24748482 35.394903,0.31608482 36.127303,0.40158482 36.408903,1.2082848 36.633603,2.0110848 36.796203,2.8077848 36.886803,3.5949848 36.874503,4.3658848 36.756303,5.0464848 37.767603,5.2416848 38.770803,5.4746848 38.939703,4.8048848 39.242003,4.0956848 39.644903,3.4132848 40.117503,2.7516848 40.649403,2.1095848 41.234703,1.4871848 41.938503,1.7069848 42.637203,1.9428848 42.744903,2.7904848 42.797803,3.6224848 42.791203,4.4355848 42.716103,5.2244848 42.543803,5.9758848 42.286703,6.6170848 43.235303,7.0182848 44.168203,7.4547848 44.472603,6.8346848 44.915703,6.2037848 45.451703,5.6201848 46.051503,5.0711848 46.705303,4.5537848 47.407203,4.0666848 48.050003,4.4279848 48.684303,4.8039848 48.613403,5.6553848 48.492203,6.4802848 48.316703,7.2742848 48.079203,8.0302848 47.754503,8.7294848 47.369603,9.3030848 48.214103,9.8927848 49.035903,10.513685 49.462503,9.9704848 50.027203,9.4454848 50.672803,8.9860848 51.373703,8.5737848 52.120703,8.2035848 52.908503,7.8730848 53.462203,8.3601848 54.004403,8.8598848 53.758103,9.6778848 53.468003,10.459585 53.131303,11.199685 52.741803,11.889785 52.278803,12.506185 51.783103,12.987285 52.486503,13.739685 53.161203,14.517885 53.691503,14.075185 54.353003,13.679085 55.080003,13.363985 55.851203,13.106385 56.658903,12.899585 57.498303,12.740085 57.938503,13.331685 58.365103,13.933185 57.954003,14.682185 57.507703,15.386385 57.024503,16.040285 56.500103,16.634385 55.919003,17.141085 55.334103,17.508585 55.865703,18.390785 56.363903,19.292285 56.974603,18.969485 57.704003,18.719585 58.480603,18.562485 59.288603,18.470885 60.121603,18.436585 60.975803,18.455085 61.283503,19.125185 61.575603,19.802285 61.017803,20.449385 60.434903,21.045485 59.826203,21.584685 59.189703,22.056685 58.516003,22.431485 57.867503,22.669385 58.204103,23.642785 58.503903,24.628185 59.168403,24.439485 59.933803,24.346685 60.726203,24.354385 61.535503,24.432885 62.357503,24.572485 63.189103,24.768185 63.350703,25.487585 63.495703,26.210585 62.815603,26.727685 62.121403,27.189485 61.414003,27.590285 60.693303,27.919685 59.956303,28.146285 59.272503,28.244085 59.399403,29.266285 59.487803,30.292385 Z"
       id="path791" />
    <path
       style="fill:none;stroke:#0000ff;stroke-width:0.1"
       d="M 33.471473,34.166145 33.366043,34.662135 32.898843,34.465035 32.668623,34.916835 32.268353,34.605535 31.929053,34.982355 31.622993,34.578065 31.197713,34.854225 31.006723,34.384495 30.524473,34.541185 30.461553,34.038025 29.955183,34.064555 30.024643,33.562265 29.528653,33.456825 29.725743,32.989625 29.273953,32.759405 29.585253,32.359135 29.208433,32.019835 29.612713,31.713775 29.336553,31.288505 29.806283,31.097515 29.649603,30.615255 30.152763,30.552345 30.126233,30.045965 30.628523,30.115425 30.733963,29.619435 31.201163,29.816535 31.431383,29.364735 31.831643,29.676035 32.170953,29.299215 32.477013,29.703505 32.902283,29.427345 33.093273,29.897075 33.575533,29.740385 33.638443,30.243545 34.144823,30.217015 34.075363,30.719305 34.571353,30.824745 34.374253,31.291945 34.826053,31.522165 34.514753,31.922425 34.891573,32.261735 34.487283,32.567795 34.763443,32.993065 34.293713,33.184055 34.450403,33.666315 33.947243,33.729225 33.973773,34.235605 Z"
       id="path792" />
    <path
       style="fill:none;stroke:#006633;stroke-width:0.1"
       d="M 41.732463,34.640785 A 10,10 0 0 1 39.056293,39.276035 L 45.395403,50.255705 A 22.5,22.5 0 0 0 54.410683,34.640785 Z M 34.726173,41.776035 A 10,10 0 0 1 29.373833,41.776035 L 23.034723,52.755705 A 22.5,22.5 0 0 0 41.065283,52.755705 Z M 25.043713,39.276035 A 10,10 0 0 1 22.367543,34.640785 H 9.6893233 A 22.5,22.5 0 0 0 18.704603,50.255705 Z M 22.367543,29.640785 A 10,10 0 0 1 25.043713,25.005525 L 18.704603,14.025865 A 22.5,22.5 0 0 0 9.6893233,29.640785 Z M 29.373833,22.505525 A 10,10 0 0 1 34.726173,22.505525 L 41.065283,11.525865 A 22.5,22.5 0 0 0 23.034723,11.525865 Z M 39.056293,25.005525 A 10,10 0 0 1 41.732463,29.640785 H 54.410683 A 22.5,22.5 0 0 0 45.395403,14.025865 Z"
       id="path794" />
    <path
       style="fill:none;stroke:#5666e4;stroke-width:0.31;stroke-dasharray:none;stroke-opacity:1"
       d="M 49.496013,32.140775 62.592223,16.518875 H 74.191723"
       id="path796" />
    <text
       xml:space="preserve"
       style="font-size:4.58611px;line-height:1.25;font-family:sans-serif;-inkscape-font-specification:sans-serif;letter-spacing:0px;word-spacing:0px;fill:#5666e4;fill-opacity:1;stroke-width:0.264583"
       x="61.656746"
       y="15.263189"
       id="text796"><tspan
         sodipodi:role="line"
         id="tspan796"
         style="font-size:4.58611px;fill:#5666e4;fill-opacity:1;stroke-width:0.264583"
         x="61.656746"
         y="15.263189">Rayon</tspan></text>
    <path
       style="fill:none;fill-opacity:1;stroke:#5666e4;stroke-width:0.309999;stroke-dasharray:none;stroke-opacity:1"
       d="M 40.698273,37.161455 61.275793,47.946795 91.684493,47.996555"
       id="path797"
       sodipodi:nodetypes="ccc" />
    <text
       xml:space="preserve"
       style="font-size:4.58611px;line-height:1.25;font-family:sans-serif;-inkscape-font-specification:sans-serif;letter-spacing:0px;word-spacing:0px;fill:#5666e4;fill-opacity:1;stroke:none;stroke-width:0.265;stroke-dasharray:none;stroke-opacity:1"
       x="61.275764"
       y="47.646427"
       id="text797"><tspan
         sodipodi:role="line"
         id="tspan797"
         style="font-size:4.58611px;fill:#5666e4;fill-opacity:1;stroke:none;stroke-width:0.265;stroke-dasharray:none;stroke-opacity:1"
         x="61.275764"
         y="47.646427">Cercle interne</tspan></text>
    <text
       xml:space="preserve"
       style="font-size:4.58611px;line-height:1.25;font-family:sans-serif;-inkscape-font-specification:sans-serif;letter-spacing:0px;word-spacing:0px;fill:#5666e4;fill-opacity:1;stroke-width:0.264583"
       x="55.576427"
       y="3.2744827"
       id="text798"><tspan
         sodipodi:role="line"
         id="tspan798"
         style="font-size:4.58611px;fill:#5666e4;fill-opacity:1;stroke-width:0.264583"
         x="55.576427"
         y="3.2744827">Jante ou anneau</tspan></text>
    <path
       style="fill:none;fill-opacity:1;stroke:#5666e4;stroke-width:0.264999;stroke-dasharray:none;stroke-opacity:1"
       d="M 41.264113,8.3805048 54.466583,4.3580948 90.316223,4.1710048"
       id="path798" />
  </g>
</svg>
